<svg xmlns="http://www.w3.org/2000/svg" xmlns:xlink="http://www.w3.org/1999/xlink" width="691.3" height="652.5" x="0" y="0" version="1.1" viewBox="0 0 691.3 652.5" xml:space="preserve" style="enable-background:new 0 0 691.3 652.5"><style type="text/css">.st3{fill:none;stroke:#2467f4;stroke-width:2;stroke-miterlimit:10}.st4{fill:none;stroke:#969696;stroke-dasharray:4,4}.st4,.st5,.st6{stroke-miterlimit:10}.st5{fill:none;stroke:#969696;stroke-width:2}.st6{fill:#fff;stroke:#000}.st10{fill:none}.st13{filter:url(#Adobe_OpacityMaskFilter)}.st14{fill:#fff}.st17{fill:url(#SVGID_2_)}.st18{fill:#032068}.st20{clip-path:url(#SVGID_6_)}.st21{fill:#273237}.st22{clip-path:url(#SVGID_8_)}.st23{fill:#3e4b53}.st24{clip-path:url(#SVGID_10_)}.st25{fill:#3881a1}.st26{clip-path:url(#SVGID_12_)}.st27{fill:#4babcc}.st28{clip-path:url(#SVGID_14_)}.st29{fill:#357a69}.st30{clip-path:url(#SVGID_16_)}.st31{fill:#4ead99}.st32{filter:url(#Adobe_OpacityMaskFilter_1_)}.st43{fill:#030506}.st48{clip-path:url(#SVGID_22_)}.st49{clip-path:url(#SVGID_24_)}.st50{clip-path:url(#SVGID_26_)}.st51{clip-path:url(#SVGID_28_)}.st52{clip-path:url(#SVGID_30_)}.st53{clip-path:url(#SVGID_32_)}.st54{clip-path:url(#SVGID_34_)}.st58{clip-path:url(#SVGID_39_)}.st103{fill:#fff;stroke:#2467f4;stroke-width:2;stroke-miterlimit:10}.st104{fill:#ec7f4c}.st105{fill:#f0a780}.st106{fill:#53af9f}.st107{fill:#73d1c2}.st108{fill:#303737}.st109{fill:#5a6565}.st110{fill:#f8e58c}.st111{fill:#f5d356}.st112{fill:#3f4747}.st113{fill:#8d61c9}.st114{fill:#e8559d}.st115{fill:#7ab757}.st128{fill:#74a0d0}.st188{mask:url(#ad64d206-7b2b-4368-b62d-adee73950f0d_6_)}.st269{font-family:&apos;IBMPlexSans-Medium&apos;}.st270{font-size:11px}.st271{font-family:&apos;IBMPlexSans-Bold&apos;}.st272{fill:#161616}</style><g id="Lines_x5F_backgroud"><g id="Lines_x5F_backgroud_1_"><line x1="627.9" x2="566.9" y1="181.3" y2="181.3" class="st3"/><line x1="501.9" x2="441.9" y1="180.3" y2="180.3" class="st3"/><line x1="373.9" x2="313.9" y1="181.3" y2="181.3" class="st3"/><line x1="248.9" x2="186" y1="181.3" y2="181.3" class="st3"/><line x1="122.9" x2="61.9" y1="181.3" y2="181.3" class="st3"/><polyline points="234.2 196.8 250.2 180.8 234.2 164.8" class="st3"/><polyline points="106.2 196.8 122.2 180.8 106.2 164.8" class="st3"/><line id="Dashed_lin1_6_" x1="281.6" x2="281.6" y1="145.5" y2="109.5" class="st4"/><line id="Dashed_line2_3_" x1="333.9" x2="361.9" y1="33.3" y2="33.3" class="st4"/><polyline id="Dashed_lin1_8_" points="308.9 253.3 308.9 316.3 309.1 316.3 379.9 316.3" class="st4"/><line id="Dashed_lin1_9_" x1="532.9" x2="532.9" y1="146.3" y2="37.3" class="st4"/><line id="Dashed_line2_5_" x1="533.9" x2="451.9" y1="33.3" y2="33.3" class="st4"/><line id="Dashed_line2_6_" x1="310.9" x2="334.9" y1="163.3" y2="163.3" class="st4"/><line id="Dashed_lin1_7_" x1="334.9" x2="334.9" y1="163.3" y2="37.3" class="st4"/><polyline id="Dashed_lin1_10_" points="515.4 253.3 515.4 316.3 515.2 316.3 440.4 316.3" class="st4"/><line id="Dashed_lin1_11_" x1="406.9" x2="406.9" y1="282" y2="253.3" class="st4"/><line id="Dashed_lin1_12_" x1="406.9" x2="406.9" y1="398.8" y2="370.3" class="st4"/><line id="Dashed_lin1_13_" x1="406.9" x2="406.9" y1="542" y2="487.3" class="st4"/><line id="Dashed_lin1_14_" x1="281.9" x2="281.9" y1="513.3" y2="244.3" class="st4"/><polyline id="Dashed_lin1_15_" points="540.9 253.3 540.9 513.3 541.9 514.3 280.9 514.3" class="st4"/><polyline points="289.6 110.3 281.6 102.3 273.6 110.3" class="st5"/><polyline points="164.2 99.8 156.2 91.8 148.2 99.8" class="st5"/><polyline points="148.2 136 156.2 144 164.2 136" class="st5"/><polyline points="317.6 252.8 309.6 244.8 301.6 252.8" class="st5"/><polyline points="523.4 252.8 515.4 244.8 507.4 252.8" class="st5"/><polyline points="548.4 252.8 540.4 244.8 532.4 252.8" class="st5"/><polyline points="362.6 41 370.6 33 362.6 25" class="st5"/><polyline points="452.9 41 444.9 33 452.9 25" class="st5"/><polyline points="484.9 196.5 500.9 180.5 484.9 164.5" class="st3"/><polyline points="610.2 196.8 626.2 180.8 610.2 164.8" class="st3"/><polyline points="359.2 196.8 375.2 180.8 359.2 164.8" class="st3"/><line id="Dashed_line2_4_" x1="190.9" x2="235" y1="33.3" y2="33.3" class="st4"/><line id="Dashed_lin1_5_" x1="156.2" x2="156.2" y1="136.3" y2="100.3" class="st4"/><polyline points="235.6 41 243.6 33 235.6 25" class="st5"/></g></g><g id="Icons"><g id="CI_Pipeline_9_"><circle cx="283" cy="180" r="32" class="st103"/><g id="CI_x5F_CD_x5F_icon_35_"><g id="e18fe981-7760-4f0f-92d6-295e583f5df5_35_"><g><path d="M296.2,182.4c-1.5,6.3-6.8,10.9-13.4,10.9c-4.1,0.1-8-1.8-10.4-5.2l7.2-7.4l0.8,0.8l-0.8-0.8l0,0 l1.1,1.3l1.7-5.9l-5.8,1.7l1.1,1.1l-1.7,2l-4.9,5c-1-1.7-1.6-3.5-1.7-5.4l-2.1-3.1c-0.1,0.7-0.2,1.5-0.1,2.2 c0,8.9,7.3,16.3,16.1,16.3c6.9-0.1,13-4.4,15.2-10.9L296.2,182.4z" class="st104"/><polyline points="270.9 185.9 277.6 178.9 276.7 177.7 282.4 176.1 272.4 186" class="st105"/></g><g><path d="M283.1,195.6c6.9-0.1,13-4.4,15.2-10.9l-1.1-1.3c-1.9,7.8-9.8,12.5-17.6,10.6 c-6.7-1.6-11.3-7.7-11.1-14.5v-0.7l-0.8-1.5c-0.1,0.7-0.2,1.5-0.1,2.2c-0.3,8.6,6.6,15.8,15.2,16.1 C282.9,195.6,283,195.6,283.1,195.6z" class="st105"/><line x1="270.9" x2="272.4" y1="186" y2="186.5" class="st10"/></g></g><g id="b4a44eff-a6ab-4c1f-a314-3899682236f1_35_"><g><path d="M269.8,177.2c1.5-6.3,6.8-10.9,13.4-10.9c4.1-0.1,8,1.8,10.4,5.2l-7.2,7.4l-0.6-0.8l0.8,0.8l0,0 l-1.3-1.3l-1.7,5.9l5.8-1.7l-1.1-1.1l2-2l4.9-5c0.8,1.7,1.4,3.6,1.5,5.4l2.1,3.1c0.1-0.6,0.2-1.3,0.1-2 c0-8.9-7.2-16.3-16.1-16.3c-6.8,0.1-12.8,4.5-14.9,10.9L269.8,177.2z" class="st106"/><polyline points="293.7 171.5 286.4 178.9 285.4 177.6 283.7 183.5 293.4 173.4" class="st107"/></g><g><path d="M282.9,163.9c-6.9,0.1-13,4.4-15.2,10.9l1.1,1.3c1.9-7.8,9.8-12.5,17.6-10.6c6.7,1.6,11.3,7.7,11.1,14.5 v0.7l1.1,1.5c0.1-0.6,0.2-1.3,0.1-2C298.6,171,291.6,163.9,282.9,163.9z" class="st107"/><line x1="295.1" x2="293.7" y1="173.4" y2="173" class="st10"/></g></g></g></g><g id="DevOps_x5F_insights_14_"><g id="CRA_x5F_icon_9_"><circle cx="283.1" cy="35.7" r="32" class="st6"/></g></g><g id="CD_Pipeline_7_"><circle cx="534" cy="180" r="32" class="st103"/><g id="CI_x5F_CD_x5F_icon_34_"><g id="e18fe981-7760-4f0f-92d6-295e583f5df5_34_"><g><path d="M547,182c-1.5,6.3-6.8,10.9-13.4,10.9c-4.1,0.1-8-1.8-10.4-5.2l7.2-7.4l0.8,0.8l-0.8-0.8l0,0l1.1,1.3 l1.7-5.9l-5.8,1.7l1.1,1.1l-1.7,2l-4.9,5c-1-1.7-1.6-3.5-1.7-5.4l-2.1-3.1c-0.1,0.7-0.2,1.5-0.1,2.2c0,8.9,7.3,16.3,16.1,16.3 c6.9-0.1,13-4.4,15.2-10.9L547,182z" class="st104"/><polyline points="521.6 185.5 528.4 178.5 527.4 177.4 533.2 175.7 523.2 185.7" class="st105"/></g><g><path d="M533.1,195.3c6.9-0.1,13-4.4,15.2-10.9l-1.1-1.3c-1.9,7.8-9.8,12.5-17.6,10.6 c-6.7-1.6-11.3-7.7-11.1-14.5v-0.7l-0.8-1.5c-0.1,0.7-0.2,1.5-0.1,2.2c-0.3,8.6,6.6,15.8,15.2,16.1 C532.9,195.3,533,195.3,533.1,195.3z" class="st105"/><line x1="521.6" x2="523.2" y1="185.7" y2="186.2" class="st10"/></g></g><g id="b4a44eff-a6ab-4c1f-a314-3899682236f1_34_"><g><path d="M520.5,176.9c1.5-6.3,6.8-10.9,13.4-10.9c4.1-0.1,8,1.8,10.4,5.2l-7.2,7.4l-0.6-0.8l0.8,0.8l0,0 l-1.3-1.3l-1.7,5.9l5.8-1.7l-1.1-1.1l2-2l4.9-5c0.8,1.7,1.4,3.6,1.5,5.4l2.1,3.1c0.1-0.6,0.2-1.3,0.1-2 c0-8.9-7.2-16.3-16.1-16.3c-6.8,0.1-12.8,4.5-14.9,10.9L520.5,176.9z" class="st106"/><polyline points="544.4 171.1 537.1 178.5 536.1 177.3 534.4 183.2 544.2 173.1" class="st107"/></g><g><path d="M533.9,163.6c-6.9,0.1-13,4.4-15.2,10.9l1.1,1.3c1.9-7.8,9.8-12.5,17.6-10.6c6.7,1.6,11.3,7.7,11.1,14.5 v0.7l1.1,1.5c0.1-0.6,0.2-1.3,0.1-2C549.6,170.7,542.6,163.6,533.9,163.6z" class="st107"/><line x1="545.8" x2="544.4" y1="173.1" y2="172.7" class="st10"/></g></g></g></g><g id="KeyP_5_"><g id="Evidence_32_"><circle cx="409.5" cy="315" r="32" class="st6"/></g><g><defs><filter id="Adobe_OpacityMaskFilter" width="32" height="32" x="393.5" y="299" filterUnits="userSpaceOnUse"><feColorMatrix type="matrix" values="1 0 0 0 0 0 1 0 0 0 0 0 1 0 0 0 0 0 1 0"/></filter></defs><mask id="SVGID_1_" width="32" height="32" x="393.5" y="299" maskUnits="userSpaceOnUse"><g class="st13"><g><g><path d="M417.5,303v14.3c0,3.2-1.7,6.2-4.5,7.8l-4.5,2.6l-4.5-2.6c-2.8-1.6-4.5-4.6-4.5-7.8V303H417.5 M417.5,301h-18c-1.1,0-2,0.9-2,2v14.3c0,3.9,2.1,7.6,5.5,9.5l5.5,3.2l5.5-3.2c3.4-2,5.5-5.6,5.5-9.5V303 C419.5,301.9,418.6,301,417.5,301L417.5,301z" class="st14"/></g><linearGradient id="SVGID_2_" x1="405.24" x2="427.24" y1="326.712" y2="304.712" gradientUnits="userSpaceOnUse"><stop offset=".13" style="stop-color:#000;stop-opacity:0"/><stop offset=".38" style="stop-color:#000"/></linearGradient><polygon points="408.5 330 422.5 330 422.5 300 411.5 300 411.5 306 408.5 306" class="st17"/></g></g></mask><linearGradient id="SVGID_4_" x1="393.49" x2="425.49" y1="330.962" y2="298.962" gradientUnits="userSpaceOnUse"><stop offset=".1" style="stop-color:#9b76f6"/><stop offset=".9" style="stop-color:#2467f4"/></linearGradient><rect style="mask:url(#SVGID_1_);fill:url(#SVGID_4_)" width="32" height="32" x="393.5" y="299"/><path d="M419.5,313.1V301h-5v2h3v2h-3v2h3v6.1c-1.7,0.4-3,2-3,3.9c0,2.2,1.8,4,4,4s4-1.8,4-4 C422.5,315.1,421.2,313.6,419.5,313.1z M418.5,319c-1.1,0-2-0.9-2-2c0-1.1,0.9-2,2-2s2,0.9,2,2C420.5,318.1,419.6,319,418.5,319z" class="st18"/></g></g><g id="Artifacts_5_"><g id="Artifacts_13_"><g id="Artifacts_14_"><g id="Artifacts_58_"><g id="Artifacts_59_"><circle cx="409.5" cy="430.6" r="32" class="st6"/></g></g></g></g></g><g id="DevOps_x5F_insights_8_"><g id="Evidence_14_"><circle cx="409.5" cy="33.8" r="32" class="st6"/></g><g id="DevOps_x5F_icon_8_"><path d="M413.6,44.8l-7.6,0.5c-0.7,0-1.2-0.5-1.4-1.1l0,0c0-0.7,0.5-1.2,1.2-1.3l7.6-0.5c0.7,0,1.2,0.5,1.4,1.1 l0,0C414.8,44.1,414.3,44.7,413.6,44.8z" class="st108"/><path d="M413.6,48.3l-7.6,0.5c-0.7,0-1.3-0.4-1.4-1.1l0,0c0-0.7,0.5-1.2,1.2-1.3l7.6-0.5c0.7,0,1.2,0.5,1.4,1.1 l0,0C414.8,47.6,414.3,48.2,413.6,48.3z" class="st108"/><path d="M406,50.3L406,50.3c0.1,2.1,1.9,3.7,4,3.7c2.2,0,4-1.9,4-4.1v-0.1v-0.1L406,50.3z" class="st109"/><g><path d="M421.9,25.5c-0.2-6.6-5.7-11.8-12.2-11.6c-6.2,0.2-11.2,5.3-11.4,11.6c0,2.8,1.1,5.6,3,7.7 c1.9,2.3,2.8,3,2.8,6.8v0.3c0,0.5,0.5,1,1,1h10c0.5,0,1-0.4,1-1v-0.2c0-4,1-4.6,3-7.2l0,0C420.9,30.9,421.9,28.2,421.9,25.5z" class="st110"/><path d="M419,32.7l0.1-0.2C419.1,32.6,419.1,32.7,419,32.7z" class="st110"/></g><path d="M421.8,25.5c-0.1-6.5-5.4-11.7-11.8-11.6v27.4h5c0.5,0,1-0.4,1-1v-0.2c0-4,1-4.6,3-7.2l0,0 C420.8,30.9,421.8,28.2,421.8,25.5z" class="st111"/><path d="M415,47.3v-0.4c-0.1-0.6-0.5-1-1.1-1l-3.9,0.3v2.4l4.1-0.3C414.6,48.3,415,47.8,415,47.3L415,47.3z" class="st43"/><path d="M415,43.7v-0.4c-0.1-0.6-0.5-1-1.1-1l-3.9,0.4v2.4l4.1-0.3C414.6,44.7,415,44.2,415,43.7z" class="st43"/><path d="M414,49.5l-4,0.3v3.9C412.2,53.6,414,51.8,414,49.5L414,49.5z" class="st112"/><ellipse cx="409.7" cy="25.5" class="st113" rx="7.5" ry="7.2"/><path d="M410,18.2v14.5c4.1,0.1,7.4-3.1,7.5-7.2C417.4,21.4,414.1,18.1,410,18.2z" class="st114"/><path d="M415.4,30.1c1.4-1.6,2-3.8,1.6-5.9l-7.4,1.3l-4.8,5.5C408,33.6,412.7,33.2,415.4,30.1z" class="st115"/></g></g><g id="VPC_4_"><circle cx="658.8" cy="179" r="32" class="st6"/><path d="M682.1,175C682.1,175,682.1,174.8,682.1,175c-0.3-0.3-0.6-0.6-0.9-0.7l-5.8-2.5c-0.6-0.3-1.2-0.3-1.9,0 l-4.2,1.4v-5.5c0-0.3-0.1-0.6-0.3-0.9l0,0c0,0,0-0.1-0.1-0.1c-0.3-0.4-0.6-0.7-1-1l-6.1-2.6c-0.6-0.3-1.2-0.3-1.9,0l-6.5,2.3 c-0.4,0.1-0.9,0.4-1.2,0.9l-0.1,0.1c0,0,0,0,0,0.1c-0.1,0.3-0.3,0.6-0.3,0.9v5.5l-0.3,0.1l-5.3-2.3c-0.6-0.3-1.2-0.3-1.9,0 l-6.9,2.5c-1,0.3-1.6,1.3-1.6,2.2v6.2c0,0.9,0.4,1.6,1.3,2l6.4,3.2c0.6,0.3,1.4,0.3,2,0.1l4.8-1.9v4.3c0,0.9,0.4,1.6,1.3,2 l6.4,3.2c0.3,0.1,0.6,0.3,1,0.3l0,0l0,0l0,0c0.3,0,0.6,0,0.9-0.1l6.2-2.5c0.9-0.3,1.4-1.2,1.4-2v-4.5l4.6,2.3 c0.3,0.1,0.7,0.3,1,0.3l0,0l0,0l0,0c0.3,0,0.6,0,1-0.1l6.2-2.5c0.9-0.3,1.4-1.2,1.4-2V177C682.5,175.7,682.4,175.3,682.1,175z M664.5,172.5l2.5,1c-0.4,0.1-0.7,0.4-0.9,0.7l-0.1,0.1c0,0,0,0,0,0.1c-0.1,0.3-0.3,0.6-0.3,0.9l-4.8,1.7v-7.5c0.1,0,0.1,0,0.3,0 l6.9-2.3v5.2l-3-1.2c-0.4-0.1-0.9,0-1,0.3S664,172.4,664.5,172.5L664.5,172.5L664.5,172.5z M665.2,177.3v3l-3.6-1.6L665.2,177.3 L665.2,177.3z M659.8,164.2c0.3-0.1,0.6-0.1,0.7,0l5.8,2.5l-5.9,2.2c-0.3,0.1-0.6,0.1-0.9,0l-5.9-2.5L659.8,164.2z M652.2,173.7 l3.3-1.3c0.4-0.1,0.6-0.6,0.4-1s-0.6-0.6-1-0.4l-2.7,1.2V167l6.9,2.9c0.1,0,0.1,0,0.3,0.1v7.9l-6.6-3.2l0,0l0,0c0,0,0-0.1-0.1-0.1 C652.6,174.1,652.3,174,652.2,173.7C652.2,173.8,652.2,173.7,652.2,173.7z M658.4,178.5l-4.8,1.7v-4L658.4,178.5z M645,185.5 l-6.6-3.3c-0.3-0.1-0.6-0.4-0.6-0.9v-6.9l6.9,3c0.1,0,0.1,0,0.3,0.1V185.5z M644.4,176.4l-5.8-2.5l6.1-2.2c0.3-0.1,0.6-0.1,0.7,0 l5.8,2.5l-5.9,2.2C645,176.6,644.7,176.6,644.4,176.4L644.4,176.4z M649.6,179.5c-0.3-0.1-0.7,0-0.9,0.3s0,0.7,0.3,0.9l0,0l2,1.2 c-0.1,0.3-0.3,0.6-0.3,1v0.6l-5.8,2v-7.2c0.1,0,0.1,0,0.3,0l6.9-2.7v5.2c-0.1,0-0.1,0-0.1,0.1L649.6,179.5z M659.4,193.3l-6.6-3.3 c-0.3-0.1-0.6-0.4-0.6-0.9v-6.8l6.9,2.9c0.1,0,0.1,0,0.3,0.1V193.3L659.4,193.3z M658.8,184.2l-5.9-2.5l6.2-2.2 c0.3-0.1,0.6-0.1,0.7,0l5.5,2.5l0,0l0.3,0.1l-5.9,2.2C659.4,184.4,659.1,184.4,658.8,184.2z M666.6,189.9c0,0.4-0.3,0.7-0.6,0.9 l-6.6,2.6v-8.1c0.1,0,0.1,0,0.3,0l6.9-2.5V189.9z M673.9,186.1l-5.8-2.5v-0.6c0,0-0.1-0.6-0.3-0.9l0,0l0,0l1.9-0.9 c0.3-0.1,0.6-0.6,0.4-0.9l0,0c-0.1-0.3-0.6-0.6-0.9-0.3l-2.5,1l0,0v-0.1v-4.9l6.9,2.9c0.1,0,0.1,0,0.3,0.1v6.9H673.9z M673.3,177.4l-5.9-2.5l6.2-2.2c0.3-0.1,0.6-0.1,0.7,0l5.5,2.5l-5.8,2.2C673.9,177.6,673.6,177.6,673.3,177.4z M681.1,183.2 c0,0.4-0.3,0.7-0.6,0.9l-6.6,2.6v-8.1c0.1,0,0.1,0,0.3-0.1l6.9-2.7V183.2z" class="st128"/></g><g id="App_Repo_5_"><circle cx="154.3" cy="178.4" r="32" class="st6"/><g id="Layer_2_5_"><g id="Layer_1-2_17_"><g><defs><rect id="SVGID_128_" width="40" height="40" x="134.3" y="158.4"/></defs><clipPath id="SVGID_6_"><use xlink:href="#SVGID_128_" style="overflow:visible"/></clipPath><g class="st20"><g><defs><rect id="SVGID_130_" width="40" height="40" x="134.3" y="158.4"/></defs><clipPath id="SVGID_8_"><use xlink:href="#SVGID_130_" style="overflow:visible"/></clipPath><g class="st22"><path d="M146.2,180.2c-0.1-0.3-0.1-0.7-0.2-1c0-0.1,0-0.1,0-0.2l0,0c-0.1-0.9,0-1.7,0.2-2.6l0,0 c0,0,0-0.1,0-0.2c0,0,0-0.1,0-0.1c0,0,0-0.1,0-0.1c0,0,0-0.1,0-0.2s0,0,0,0c0.3-0.9,0.7-1.7,1.2-2.5l0,0l0.2-0.2l0.1-0.1 l0.1-0.1c0.2-0.3,0.4-0.5,0.7-0.7c-1.7-3.3-1.6-7.3,0.2-10.6c-1.1,0.4-2.2,0.8-3.2,1.4l0,0l-0.1,0.1h-0.1l0,0 c0,0-0.1,0-0.1,0h-0.1l-0.2,0.1l-0.2,0.1c-0.1,0-0.1,0.1-0.2,0.1l-0.1,0.1l-0.2,0.1l-0.1,0.1l-0.2,0.1l-0.2,0.2l-0.2,0.1 l-0.1,0.1l-0.3,0.2L143,165l-0.2,0.1c-0.1,0-0.1,0.1-0.1,0.1l-0.1,0.1c0,0-0.1,0.1-0.1,0.1l-0.1,0.2l-0.1,0.1L142,166 c0,0-0.1,0.1-0.1,0.1l-0.1,0.1c-0.1,0-0.1,0.1-0.2,0.1c0,0-0.1,0.1-0.1,0.1l-0.1,0.2l-0.1,0.2l-0.2,0.3c0,0-0.1,0.1-0.1,0.1 c0,0-0.1,0.1-0.1,0.2c0,0-0.1,0.1-0.1,0.1c0,0.1-0.1,0.1-0.1,0.2c0,0-0.1,0.1-0.1,0.1l-0.1,0.2c0,0-0.1,0.1-0.1,0.1 c0,0,0,0.1-0.1,0.1l-0.1,0.1l-0.1,0.1c0,0.1-0.1,0.1-0.1,0.2l-0.1,0.1l0,0l-0.1,0.2l-0.1,0.2c-0.1,0.1-0.1,0.2-0.2,0.4 l-0.2,0.4l-0.1,0.1l-0.1,0.2c0,0,0,0.1-0.1,0.1c0,0.1-0.1,0.2-0.1,0.2c0,0.1,0,0.1-0.1,0.1l-0.1,0.3v0.2 c0,0.1-0.1,0.2-0.1,0.2c0,0,0,0.1-0.1,0.1L138,172c0,0,0,0.1,0,0.1l-0.1,0.4l0,0c-0.1,0.1-0.1,0.2-0.1,0.4 c0,0.1,0,0.1,0,0.1c-0.1,0,0,0.2-0.1,0.3s0,0.1-0.1,0.1l-0.1,0.2l0,0v0.1c0,0,0,0.1,0,0.1l-0.2,0.2l0,0c0,0,0,0.1,0,0.1 l-0.1,0.6l0,0C139.1,178,142.5,180,146.2,180.2" class="st21"/></g></g><g><defs><rect id="SVGID_132_" width="40" height="40" x="134.3" y="158.4"/></defs><clipPath id="SVGID_10_"><use xlink:href="#SVGID_132_" style="overflow:visible"/></clipPath><g class="st24"><path d="M151.9,186.3c-0.3-0.1-0.6-0.2-0.9-0.3l-0.2-0.1l0,0c-0.8-0.4-1.5-0.9-2.2-1.5l0,0l-0.1-0.1l-0.1-0.1 l-0.1-0.1l-0.1-0.1l0,0c-0.6-0.7-1.1-1.5-1.5-2.3l0,0l-0.1-0.2l-0.1-0.1c0,0,0-0.1,0-0.1c-0.1-0.3-0.2-0.6-0.3-1 c-3.7-0.2-7.2-2.2-9.1-5.4c-0.2,1.1-0.4,2.3-0.4,3.5v0.4l0,0v0.2c0,0.1,0,0.1,0,0.2s0,0.1,0,0.2s0,0.1,0,0.2 c0,0.1,0,0.1,0,0.2c0,0.1,0,0.1,0,0.2c0,0.1,0,0.1,0,0.2c0,0.1,0,0.1,0,0.2c0,0.1,0,0.1,0,0.2v0.2c0,0,0,0.1,0,0.2l0.1,0.4 v0.2c0,0.1,0,0.1,0,0.2c0,0.1,0,0.1,0,0.2c0,0.1,0,0.1,0,0.2c0,0.1,0,0.1,0,0.2s0,0.1,0.1,0.2s0,0.1,0,0.2 c0,0.1,0,0.1,0,0.2c0,0.1,0,0.1,0.1,0.2c0,0.1,0,0.1,0,0.2c0,0.1,0,0.1,0.1,0.2c0,0.1,0,0.1,0,0.2l0.1,0.2 c0,0.1,0,0.1,0.1,0.2c0,0.1,0.1,0.2,0.1,0.3l0.1,0.2c0,0.1,0,0.1,0.1,0.2c0,0.1,0,0.1,0.1,0.2c0,0.1,0,0.1,0.1,0.2l0.1,0.2 c0,0.1,0.1,0.1,0.1,0.2l0.1,0.2v0.1l0.1,0.2l0.1,0.2c0,0.1,0.1,0.2,0.1,0.2l0.1,0.1c0,0,0,0,0,0.1l0.1,0.2 c0,0,0,0.1,0.1,0.1l0.2,0.4c0.1,0.1,0.1,0.2,0.2,0.4c0,0,0,0.1,0.1,0.1l0.2,0.2l0.1,0.1l0.1,0.2l0.1,0.1 c0,0.1,0.1,0.1,0.1,0.2l0.1,0.1l0.7,0.2l0.1,0.1l0.2,0.2l0.1,0.1c0.1,0.1,0.2,0.2,0.3,0.3l0,0l0.2,0.3l0.1,0.1l0.2,0.2 l0.1,0.1l0.1,0.1l0,0l0.1,0.1l0.1,0.1l0.2,0.2l0,0l0.1,0.1c0.1,0.1,0.3,0.3,0.5,0.4l0,0 C146.4,191.3,149.9,189.4,151.9,186.3" class="st23"/></g></g><g><defs><rect id="SVGID_134_" width="40" height="40" x="134.3" y="158.4"/></defs><clipPath id="SVGID_12_"><use xlink:href="#SVGID_134_" style="overflow:visible"/></clipPath><g class="st26"><path d="M160,184.4c-0.2,0.2-0.5,0.4-0.8,0.6l-0.1,0.1l0,0c-0.7,0.5-1.5,0.9-2.3,1.1l0,0h-0.2h-0.1l-0.2,0.1 h-0.2l0,0c-0.9,0.2-1.8,0.3-2.8,0.2h-0.1h-0.2h-0.1h-0.1c-0.3-0.1-0.6-0.1-1-0.2c-2,3.1-5.5,5-9.2,5.1 c0.9,0.8,1.8,1.5,2.8,2.1l0,0l0.3,0.2h0.1l0,0h0.1h0.1l0.2,0.1c0.1,0,0.1,0.1,0.2,0.1l0.2,0.1l0.2,0.1l0.2,0.1l0.2,0.1 l0.3,0.2l0.2,0.1l0.2,0.1l0.2,0.1l0.3,0.1l0.2,0.1l0.2,0.1l0.2,0.1l0.2,0.1l0.2,0.1l0.2,0.1h0.2h0.2l0.2,0.1h0.2h0.2h0.2 l0.2,0.1h0.2l0.4,0.1h0.2h0.2h0.2h0.2h0.2h0.2h0.2h0.3h0.2h2.6h0.2h0.2h0.2h0.2h0.1h0.3h0.1l0.4-0.1l0,0l0.4-0.1h0.1 c0.1,0,0.2,0,0.3-0.1l0.1,0.3h0.2l0,0h0.1h0.1l0.2-0.1l0,0h0.1l0.6-0.2l0,0C161.6,191.8,161.7,187.8,160,184.4" class="st25"/></g></g><g><defs><rect id="SVGID_136_" width="40" height="40" x="134.3" y="158.4"/></defs><clipPath id="SVGID_14_"><use xlink:href="#SVGID_136_" style="overflow:visible"/></clipPath><g class="st28"><path d="M162.3,176.4c0.1,0.3,0.1,0.7,0.2,1c0,0.1,0,0.1,0,0.2l0,0c0.1,0.9,0,1.7-0.2,2.6l0,0 c0,0.1,0,0.1,0,0.2c0,0,0,0.1,0,0.1c0,0,0,0.1,0,0.1c0,0.1,0,0.1,0,0.2l0,0c-0.3,0.9-0.7,1.7-1.2,2.5l0,0l-0.2,0.2l-0.1,0.1 l-0.1,0.1c-0.2,0.3-0.4,0.5-0.7,0.7c1.7,3.3,1.6,7.3-0.2,10.6c1.1-0.4,2.2-0.8,3.2-1.4l0,0l0.3-0.2h0.1l0,0c0,0,0.1,0,0.1,0 l0.1-0.1l0.2-0.1l0.2-0.1l0.2-0.1l0.2-0.1l0.2-0.1l0.1-0.1l0.2-0.1l0.1-0.1l0.2-0.1l0.1-0.1l0.3-0.2l0.1-0.1l0.2-0.1 c0,0,0.1-0.1,0.1-0.1l0.2-0.1l0.1-0.1c0,0,0.1-0.1,0.1-0.1l0.1-0.1l0.1-0.1l0.2-0.2l0.1-0.1l0.1-0.1l0.1-0.1l0.1-0.1 l0.2-0.2l0.2-0.3c0,0,0.1-0.1,0.1-0.1l0.1-0.2c0,0,0.1-0.1,0.1-0.1c0-0.1,0.1-0.1,0.1-0.2c0,0,0.1-0.1,0.1-0.1l0.1-0.2 l0.1-0.1c0,0,0-0.1,0.1-0.1l0.1-0.1l0.1-0.1c0-0.1,0.1-0.2,0.1-0.2l0.1-0.1v-0.1l0.1-0.2v-0.2c0.1-0.1,0.1-0.2,0.2-0.4 l0.2-0.4c0,0,0-0.1,0.1-0.1l0.1-0.2c0-0.1,0-0.1,0.1-0.1c0-0.1,0.1-0.2,0.1-0.2c0-0.1,0-0.1,0.1-0.2c0-0.1,0.1-0.1,0.1-0.2 l0.1-0.1l0.1-0.2c0,0,0-0.1,0.1-0.1l0.1-0.3v-0.1c0-0.1,0.1-0.3,0.1-0.4l0,0c0-0.1,0.1-0.2,0.1-0.4c0-0.1,0-0.1,0-0.1 s0-0.2,0.1-0.3c0-0.1,0-0.1,0-0.2l0.1-0.2c0,0,0,0,0-0.1v-0.1c0,0,0-0.1,0-0.1l0.1-0.2l0,0c0,0,0-0.1,0-0.1l0.1-0.6l0,0 C169.3,178.7,166,176.7,162.3,176.4" class="st27"/></g></g><g><defs><rect id="SVGID_138_" width="40" height="40" x="134.3" y="158.4"/></defs><clipPath id="SVGID_16_"><use xlink:href="#SVGID_138_" style="overflow:visible"/></clipPath><g class="st30"><path d="M156.7,170.4c0.3,0.1,0.6,0.2,0.9,0.3l0.2,0.1l0,0c0.8,0.4,1.5,0.9,2.1,1.4l0,0l0.1,0.1 c0,0,0,0,0.1,0.1l0.1,0.1l0.1,0.1l0,0c0.6,0.7,1.1,1.5,1.5,2.3c0,0,0,0,0,0.1l0.1,0.2v0.1c0,0,0,0.1,0,0.1 c0.1,0.3,0.2,0.6,0.3,1c3.7,0.2,7.2,2.2,9.1,5.5c0.2-1.1,0.4-2.3,0.4-3.5V178l0,0v-0.2c0-0.1,0-0.1,0-0.2s0-0.1,0-0.2 s0-0.1,0-0.2c0-0.1,0-0.1,0-0.2c0-0.1,0-0.1,0-0.2c0-0.1,0-0.1,0-0.2c0-0.1,0-0.1,0-0.2c0-0.1,0-0.1,0-0.2V176 c0-0.1,0-0.1,0-0.2l-0.1-0.4v-0.2c0-0.1,0-0.2,0-0.2c0-0.1,0-0.1,0-0.2s0-0.1,0-0.2c0-0.1,0-0.1,0-0.2c0-0.1,0-0.1-0.1-0.2 v-0.2c0-0.1,0-0.1-0.1-0.2c0-0.1,0-0.1,0-0.2c0-0.1,0-0.1,0-0.2c0-0.1,0-0.1-0.1-0.2c0-0.1,0-0.1,0-0.2l-0.1-0.2 c0-0.1,0-0.1-0.1-0.2l-0.1-0.3l-0.1-0.2c0-0.1,0-0.1-0.1-0.2c0-0.1,0-0.1-0.1-0.2c0-0.1,0-0.1-0.1-0.2l-0.1-0.2 c0-0.1,0-0.1-0.1-0.2l-0.4-0.1v-0.1l-0.1-0.2l-0.1-0.2c0-0.1-0.1-0.2-0.1-0.2l-0.1-0.1v0l-0.1-0.2c0,0,0-0.1-0.1-0.1 l-0.2-0.4c-0.1-0.1-0.1-0.2-0.2-0.4c0,0,0-0.1-0.1-0.1l-0.1-0.2l-0.1-0.1l-0.1-0.2l-0.1-0.1l-0.1-0.2l-0.1-0.1l-0.2-0.2 l-0.1-0.1l-0.2-0.2l-0.1-0.1c-0.1-0.1-0.2-0.2-0.3-0.3l0,0l-0.2-0.3l-0.1-0.2l-0.2-0.2l-0.1-0.1c0-0.1-0.1-0.1-0.2-0.1l0,0 l-0.1-0.1l-0.1-0.1l-0.2-0.2l0,0l-0.1-0.1c-0.1-0.1-0.3-0.3-0.5-0.4l0,0C162.2,165.3,158.7,167.2,156.7,170.4" class="st29"/></g></g><g><defs><rect id="SVGID_140_" width="40" height="40" x="134.3" y="158.4"/></defs><clipPath id="SVGID_17_"><use xlink:href="#SVGID_140_" style="overflow:visible"/></clipPath><g style="clip-path:url(#SVGID_17_)"><path d="M148.6,172.4c0.2-0.2,0.5-0.4,0.8-0.6l0.1-0.1l0,0c0.7-0.5,1.5-0.9,2.3-1.1l0,0h0.2h0.1h0.1h0.2l0,0 c0.9-0.2,1.8-0.3,2.8-0.2h0h0.2h0.1h0.1c0.3,0.1,0.7,0.1,1,0.2c2-3.2,5.5-5.2,9.3-5.3c-0.9-0.8-1.8-1.5-2.8-2.1l0,0 l-0.3-0.1h-0.1l0,0h-0.1h-0.1l-0.2-0.1l-0.2-0.1l-0.2-0.1l-0.2-0.1l-0.2-0.1l-0.2-0.1l-0.2-0.2l-0.2-0.1l-0.2-0.1l-0.2-0.1 l-0.4-0.1l-0.2-0.1l-0.2-0.1l-0.2-0.1l-0.2-0.1l-0.2-0.1l-0.2-0.1l-0.2-0.1h-0.2l-0.2-0.1h-0.2l-0.2-0.1h-0.2h-0.2l-0.2,0 l-0.4-0.1h-0.2H157c-0.1,0-0.1,0-0.2,0h-0.2h-0.2h-0.2h-0.7h-0.3h-2H153h-0.2h-0.2h-0.2h-0.2h-0.1h-0.3h-0.1l-0.4,0.1l0,0 l-0.4,0.1h-0.1l-0.4,0h-0.2H150l0,0h-0.1h-0.1l-0.2,0.1l0,0h-0.1l-0.6,0.2l0,0C146.9,164.9,146.8,169,148.6,172.4" class="st31"/></g></g></g></g></g></g></g><g id="Issue_Tracker_15_"><circle cx="37.5" cy="178.4" r="32" class="st6"/><g id="Layer_2_4_"><g id="Layer_1-2_5_"><g><defs><rect id="SVGID_142_" width="40" height="40" x="17.5" y="158.4"/></defs><clipPath id="SVGID_18_"><use xlink:href="#SVGID_142_" style="overflow:visible"/></clipPath><g style="clip-path:url(#SVGID_18_)"><g><defs><rect id="SVGID_144_" width="40" height="40" x="17.5" y="158.4"/></defs><clipPath id="SVGID_19_"><use xlink:href="#SVGID_144_" style="overflow:visible"/></clipPath><g style="clip-path:url(#SVGID_19_)"><path d="M29.4,180.2c-0.1-0.3-0.1-0.7-0.2-1c0-0.1,0-0.1,0-0.2l0,0c-0.1-0.9,0-1.7,0.2-2.6l0,0 c0,0,0-0.1,0-0.2c0,0,0-0.1,0-0.1c0,0,0-0.1,0-0.1c0,0,0-0.1,0-0.2s0,0,0,0c0.3-0.9,0.7-1.7,1.2-2.5l0,0l0.1-0.2l0.1-0.1 l0.1-0.1c0.2-0.3,0.4-0.5,0.7-0.7c-1.7-3.3-1.6-7.3,0.2-10.6c-1.1,0.4-2.2,0.8-3.2,1.4l0,0l-0.1,0.1h-0.1l0,0c0,0,0,0-0.1,0 h-0.1l-0.2,0.1l-0.1,0.1c-0.1,0-0.1,0.1-0.2,0.1l-0.1,0.1l-0.2,0.1l-0.1,0.1l-0.2,0.1l-0.2,0.2l-0.2,0.1l-0.1,0.1l-0.3,0.2 l-0.1,0.1l-0.2,0.1c-0.1,0-0.1,0.1-0.1,0.1l-0.1,0.1c0,0-0.1,0.1-0.1,0.1l-0.1,0.2l-0.1,0.1l-0.1,0.1c0,0-0.1,0.1-0.1,0.1 l-0.1,0.1c-0.1,0-0.1,0.1-0.2,0.1c0,0-0.1,0.1-0.1,0.1l-0.1,0.2l-0.1,0.2l-0.2,0.3c0,0-0.1,0.1-0.1,0.1c0,0-0.1,0.1-0.1,0.2 c0,0-0.1,0.1-0.1,0.1c0,0.1-0.1,0.1-0.1,0.2c0,0-0.1,0.1-0.1,0.1l-0.1,0.2c0,0-0.1,0.1-0.1,0.1c0,0,0,0.1-0.1,0.1l-0.1,0.1 l-0.1,0.1c0,0.1-0.1,0.1-0.1,0.2l-0.1,0.1l0,0l-0.1,0.2l-0.1,0.2c-0.1,0.1-0.1,0.2-0.2,0.4l-0.2,0.4l-0.1,0.1l-0.1,0.2 c0,0,0,0.1-0.1,0.1c0,0.1-0.1,0.2-0.1,0.2c0,0.1,0,0.1-0.1,0.1l-0.1,0.3v0.2c0,0.1-0.1,0.2-0.1,0.2c0,0,0,0.1-0.1,0.1 l-0.1,0.3c0,0,0,0.1,0,0.1l-0.1,0.4l0,0c0,0.1-0.1,0.2-0.1,0.4c0,0.1,0,0.1-0.1,0.1c0,0,0,0.2-0.1,0.3s0,0.1,0,0.1l-0.1,0.2 l0,0v0.1c0,0,0,0.1,0,0.1l-0.2,0.2l0,0c0,0,0,0.1,0,0.1l-0.1,0.6l0,0C22.3,178,25.7,180,29.4,180.2" class="st21"/></g></g><g><defs><rect id="SVGID_146_" width="40" height="40" x="17.5" y="158.4"/></defs><clipPath id="SVGID_20_"><use xlink:href="#SVGID_146_" style="overflow:visible"/></clipPath><g style="clip-path:url(#SVGID_20_)"><path d="M35.1,186.3c-0.3-0.1-0.6-0.2-0.9-0.3l-0.2-0.1l0,0c-0.8-0.4-1.5-0.9-2.2-1.5l0,0l-0.1-0.1l-0.1-0.1 l-0.1-0.1l-0.1-0.1l0,0c-0.6-0.7-1.1-1.5-1.5-2.3l0,0l-0.1-0.2l-0.1-0.1c0,0,0-0.1,0-0.1c-0.1-0.3-0.2-0.6-0.3-1 c-3.7-0.2-7.2-2.2-9.1-5.4c-0.2,1.1-0.4,2.3-0.4,3.5v0.4l0,0v0.2c0,0.1,0,0.1,0,0.2s0,0.1,0,0.2s0,0.1,0,0.2 c0,0.1,0,0.1,0,0.2c0,0.1,0,0.1,0,0.2c0,0.1,0,0.1,0,0.2c0,0.1,0,0.1,0,0.2c0,0.1,0,0.1,0,0.2v0.2c0,0,0,0.1,0,0.2l0.1,0.4 v0.2c0,0.1,0,0.1,0,0.2c0,0.1,0,0.1,0,0.2c0,0.1,0,0.1,0,0.2c0,0.1,0,0.1,0,0.2s0,0.1,0.1,0.2c0,0.1,0,0.1,0,0.2 c0,0.1,0,0.1,0,0.2c0,0.1,0,0.1,0,0.2c0,0.1,0,0.1,0,0.2c0,0.1,0,0.1,0.1,0.2c0,0.1,0,0.1,0,0.2l0.1,0.2 c0,0.1,0,0.1,0.1,0.2c0,0.1,0.1,0.2,0.1,0.3l0.1,0.2c0,0.1,0,0.1,0.1,0.2c0,0.1,0,0.1,0.1,0.2c0,0.1,0,0.1,0.1,0.2l0.1,0.2 c0,0.1,0.1,0.1,0.1,0.2l0.1,0.2v0.1l0.1,0.2l0.1,0.2c0,0.1,0.1,0.2,0.1,0.2l0.1,0.1c0,0,0,0,0,0.1l0.1,0.2 c0,0,0,0.1,0.1,0.1l0.2,0.4c0.1,0.1,0.1,0.2,0.2,0.4c0,0,0,0.1,0.1,0.1l0.1,0.2l0.1,0.1l0.1,0.2l0.1,0.1 c0,0.1,0.1,0.1,0.1,0.2l0.1,0.1l0.7,0.2l0.1,0.1l0.2,0.2l0.1,0.1c0.1,0.1,0.2,0.2,0.3,0.3l0,0l0.2,0.3l0.2,0.1l0.2,0.2 l0.1,0.1l0.2,0.1l0,0l0.1,0.1l0.1,0.1l0.2,0.2l0,0l0.1,0.1c0.1,0.1,0.3,0.3,0.5,0.4l0,0C29.6,191.3,33.1,189.4,35.1,186.3" class="st23"/></g></g><g><defs><rect id="SVGID_148_" width="40" height="40" x="17.5" y="158.4"/></defs><clipPath id="SVGID_22_"><use xlink:href="#SVGID_148_" style="overflow:visible"/></clipPath><g class="st48"><path d="M43.2,184.4c-0.2,0.2-0.5,0.4-0.8,0.6l-0.2,0.1l0,0c-0.7,0.5-1.5,0.9-2.3,1.1l0,0h-0.2h-0.1l-0.2,0.1 h-0.2l0,0c-0.9,0.2-1.8,0.3-2.8,0.2h-0.1h-0.2h-0.1H36c-0.3-0.1-0.7-0.1-1-0.2c-2,3.1-5.5,5-9.2,5.1 c0.9,0.8,1.8,1.5,2.8,2.1l0,0l0.3,0.2H29l0,0h0.1h0.1l0.2,0.1c0.1,0,0.1,0.1,0.2,0.1l0.2,0.1l0.2,0.1L30,194l0.2,0.1 l0.3,0.2l0.2,0.1l0.2,0.1l0.2,0.1l0.4,0.1l0.2,0.1l0.2,0.1l0.2,0.1l0.2,0.1l0.2,0.1l0.2,0.1h0.2h0.2l0.2,0.1h0.2h0.2h0.2 l0.2,0.1h0.2l0.4,0.1h0.2h0.2H35h0.2h0.2h0.2h0.2H36h0.2h2.6h0.2h0.2h0.2h0.2h0.1H40h0.1l0.4-0.1l0,0l0.4-0.1h0.1 c0.1,0,0.2,0,0.3-0.1l0.1,0.3h0.2l0,0h0.1h0.1l0.2-0.1l0,0h0.1l0.6-0.2l0,0C44.8,191.8,44.9,187.8,43.2,184.4" class="st25"/></g></g><g><defs><rect id="SVGID_150_" width="40" height="40" x="17.5" y="158.4"/></defs><clipPath id="SVGID_24_"><use xlink:href="#SVGID_150_" style="overflow:visible"/></clipPath><g class="st49"><path d="M45.5,176.4c0.1,0.3,0.1,0.7,0.2,1c0,0.1,0,0.1,0,0.2l0,0c0.1,0.9,0,1.7-0.2,2.6l0,0 c0,0.1,0,0.1,0,0.2c0,0,0,0.1,0,0.1c0,0,0,0.1,0,0.1c0,0.1,0,0.1,0,0.2l0,0c-0.3,0.9-0.7,1.7-1.2,2.5l0,0l-0.1,0.2l-0.1,0.1 l-0.1,0.1c-0.2,0.3-0.4,0.5-0.7,0.7c1.7,3.3,1.6,7.3-0.2,10.6c1.1-0.4,2.2-0.8,3.2-1.4l0,0l0.3-0.2h0.1l0,0c0,0,0,0,0.1,0 l0.1-0.1l0.2-0.1l0.1-0.1l0.2-0.1l0.2-0.1l0.2-0.1l0.2-0.1l0.2-0.1l0.1-0.1l0.2-0.1l0.1-0.1l0.3-0.2l0.1-0.1l0.2-0.1 c0,0,0.1-0.1,0.1-0.1l0.2-0.1l0.1-0.1c0,0,0.1-0.1,0.2-0.1l0.1-0.1l0.1-0.1l0.2-0.2l0.1-0.1l0.1-0.1l0.1-0.1l0.1-0.1 l0.2-0.2l0.2-0.3c0,0,0.1-0.1,0.1-0.1l0.1-0.2c0,0,0.1-0.1,0.1-0.1c0-0.1,0.1-0.1,0.1-0.2c0,0,0.1-0.1,0.1-0.1l0.1-0.2 l0.1-0.1c0,0,0-0.1,0.1-0.1l0.1-0.1l0.1-0.1c0-0.1,0.1-0.2,0.1-0.2l0.1-0.1v-0.1l0.1-0.2l0-0.2c0.1-0.1,0.2-0.2,0.2-0.4 l0.2-0.4c0,0,0-0.1,0.1-0.1l0.1-0.2c0-0.1,0-0.1,0.1-0.1c0-0.1,0.1-0.2,0.1-0.2c0-0.1,0-0.1,0.1-0.2c0-0.1,0.1-0.1,0.1-0.2 l0.1-0.1l0.1-0.2c0,0,0-0.1,0.1-0.1l0.1-0.3v-0.1c0-0.1,0.1-0.3,0.1-0.4l0,0c0-0.1,0.1-0.2,0.1-0.4c0-0.1,0-0.1,0-0.1 s0-0.2,0.1-0.3s0-0.1,0-0.2l0.1-0.2c0,0,0,0,0-0.1v-0.1c0,0,0-0.1,0-0.1l0.1-0.2l0,0c0,0,0-0.1,0-0.1l0.2-0.6l0,0 C52.5,178.7,49.2,176.7,45.5,176.4" class="st27"/></g></g><g><defs><rect id="SVGID_152_" width="40" height="40" x="17.5" y="158.4"/></defs><clipPath id="SVGID_26_"><use xlink:href="#SVGID_152_" style="overflow:visible"/></clipPath><g class="st50"><path d="M39.9,170.4c0.3,0.1,0.6,0.2,0.9,0.3l0.2,0.1l0,0c0.8,0.4,1.5,0.9,2.1,1.4l0,0l0.1,0.1 c0,0,0,0,0.1,0.1l0.1,0.1l0.1,0.1l0,0c0.6,0.7,1.1,1.5,1.5,2.3c0,0,0,0,0,0.1l0.1,0.2v0.1c0,0,0,0.1,0,0.1 c0.1,0.3,0.2,0.6,0.3,1c3.7,0.2,7.2,2.2,9.1,5.5c0.2-1.1,0.4-2.3,0.4-3.5V178l0,0v-0.2c0-0.1,0-0.1,0-0.2s0-0.1,0-0.2 s0-0.1,0-0.2c0-0.1,0-0.1,0-0.2c0-0.1,0-0.1,0-0.2c0-0.1,0-0.1,0-0.2c0-0.1,0-0.1,0-0.2c0-0.1,0-0.1,0-0.2V176 c0-0.1,0-0.1,0-0.2l-0.1-0.4v-0.2c0-0.1,0-0.2,0-0.2c0-0.1,0-0.1,0-0.2s0-0.1,0-0.2c0-0.1,0-0.1,0-0.2c0-0.1,0-0.1,0-0.2 v-0.2c0-0.1,0-0.1,0-0.2c0-0.1,0-0.1,0-0.2c0-0.1,0-0.1,0-0.2c0-0.1,0-0.1,0-0.2c0-0.1,0-0.1,0-0.2l-0.1-0.2 c0-0.1,0-0.1-0.1-0.2l-0.1-0.3l-0.1-0.2c0-0.1,0-0.1-0.1-0.2c0-0.1,0-0.1-0.1-0.2c0-0.1,0-0.1-0.1-0.2l-0.1-0.2 c0-0.1,0-0.1-0.1-0.2l-0.4-0.1v-0.1l-0.1-0.2l-0.1-0.2c0-0.1-0.1-0.2-0.1-0.2l-0.1-0.1v0l-0.1-0.2c0,0,0-0.1-0.1-0.1 l-0.2-0.4c-0.1-0.1-0.1-0.2-0.2-0.4c0,0,0-0.1-0.1-0.1l-0.2-0.2l-0.1-0.1l-0.2-0.2l-0.1-0.1l-0.1-0.2l-0.1-0.1l-0.2-0.2 l-0.1-0.1l-0.2-0.2l-0.1-0.1c-0.1-0.1-0.2-0.2-0.3-0.3l0,0l-0.2-0.3l-0.1-0.2l-0.2-0.2l-0.1-0.1c0-0.1-0.1-0.1-0.2-0.1l0,0 l-0.1-0.1l-0.1-0.1l-0.2-0.2l0,0l-0.1-0.1c-0.2-0.1-0.3-0.3-0.5-0.4l0,0C45.4,165.3,41.9,167.2,39.9,170.4" class="st29"/></g></g><g><defs><rect id="SVGID_154_" width="40" height="40" x="17.5" y="158.4"/></defs><clipPath id="SVGID_28_"><use xlink:href="#SVGID_154_" style="overflow:visible"/></clipPath><g class="st51"><path d="M31.8,172.4c0.2-0.2,0.5-0.4,0.8-0.6l0.1-0.1l0,0c0.7-0.5,1.5-0.9,2.3-1.1l0,0h0.2h0.1h0.1h0.2l0,0 c0.9-0.2,1.8-0.3,2.8-0.2h0h0.2h0.1h0.1c0.3,0.1,0.7,0.1,1,0.2c2-3.2,5.5-5.2,9.3-5.3c-0.9-0.8-1.8-1.5-2.8-2.1l0,0 l-0.3-0.1h-0.1l0,0h-0.1h-0.1l-0.2-0.1l-0.2-0.1l-0.2-0.1l-0.2-0.1l-0.2-0.1l-0.2-0.1l-0.2-0.2l-0.2-0.1l-0.2-0.1l-0.2-0.1 l-0.3-0.1l-0.2-0.1l-0.2-0.1l-0.2-0.1l-0.2-0.1l-0.2-0.1l-0.2-0.1l-0.2-0.1h-0.2l-0.2-0.1h-0.2l-0.2-0.1h-0.2h-0.2l-0.2,0 l-0.4-0.1h-0.2h-0.2c-0.1,0-0.1,0-0.2,0h-0.2h-0.2h-0.2h-0.7h-0.3h-2h-0.3h-0.2h-0.2h-0.2h-0.2h-0.1H35h-0.1l-0.4,0.1l0,0 l-0.4,0.1h-0.1l-0.4,0h-0.2h-0.2l0,0h-0.1H33l-0.2,0.1l0,0h-0.1l-0.6,0.2l0,0C30.1,164.9,30,169,31.8,172.4" class="st31"/></g></g></g></g></g></g></g><g id="PR_Pipeline_8_"><circle cx="153.8" cy="32.5" r="32" class="st6"/><g id="CI_x5F_CD_x5F_icon_15_"><g id="e18fe981-7760-4f0f-92d6-295e583f5df5_15_"><g><path d="M166.8,34.7c-1.5,6.3-6.8,10.9-13.4,10.9c-4.1,0.1-8-1.8-10.4-5.2l7.2-7.4l0.8,0.8l-0.8-0.8l0,0l1.1,1.3 l1.7-5.9l-5.8,1.7l1.1,1.1l-1.7,2l-4.9,5c-1-1.7-1.6-3.5-1.7-5.4l-2.1-3.1c-0.1,0.7-0.2,1.5-0.1,2.2c0,8.9,7.3,16.3,16.1,16.3 c6.9-0.1,13-4.4,15.2-10.9L166.8,34.7z" class="st104"/><polyline points="141.5 38.1 148.2 31.2 147.2 30 153 28.4 143 38.3" class="st105"/></g><g><path d="M152.9,47.9c6.9-0.1,13-4.4,15.2-10.9l-1.1-1.3c-1.9,7.8-9.8,12.5-17.6,10.6 c-6.7-1.6-11.3-7.7-11.1-14.5v-0.7l-0.8-1.5c-0.1,0.7-0.2,1.5-0.1,2.2c-0.3,8.6,6.6,15.8,15.2,16.1 C152.7,47.9,152.8,47.9,152.9,47.9z" class="st105"/><line x1="141.5" x2="143" y1="38.3" y2="38.8" class="st10"/></g></g><g id="b4a44eff-a6ab-4c1f-a314-3899682236f1_15_"><g><path d="M140.3,29.5c1.5-6.3,6.8-10.9,13.4-10.9c4.1-0.1,8,1.8,10.4,5.2l-7.2,7.4l-0.6-0.8l0.8,0.8l0,0l-1.3-1.3 l-1.7,5.9l5.8-1.7l-1.1-1.1l2-2l4.9-5c0.8,1.7,1.4,3.6,1.5,5.4l2.1,3.1c0.1-0.6,0.2-1.3,0.1-2c0-8.9-7.2-16.3-16.1-16.3 c-6.8,0.1-12.8,4.5-14.9,10.9L140.3,29.5z" class="st106"/><polyline points="164.3 23.8 156.9 31.2 156 29.9 154.3 35.8 164 25.7" class="st107"/></g><g><path d="M153.7,16.2c-6.9,0.1-13,4.4-15.2,10.9l1.1,1.3c1.9-7.8,9.8-12.5,17.6-10.6c6.7,1.6,11.3,7.7,11.1,14.5 V33l1.1,1.5c0.1-0.6,0.2-1.3,0.1-2C169.4,23.3,162.4,16.2,153.7,16.2z" class="st107"/><line x1="165.7" x2="164.3" y1="25.7" y2="25.3" class="st10"/></g></g></g></g><g id="App_Repo_4_"><circle cx="410.3" cy="179.5" r="32" class="st6"/><g id="Layer_2_3_"><g id="Layer_1-2_4_"><g><defs><rect id="SVGID_173_" width="40" height="40" x="390.3" y="159.5"/></defs><clipPath id="SVGID_30_"><use xlink:href="#SVGID_173_" style="overflow:visible"/></clipPath><g class="st52"><g><defs><rect id="SVGID_175_" width="40" height="40" x="390.3" y="159.5"/></defs><clipPath id="SVGID_32_"><use xlink:href="#SVGID_175_" style="overflow:visible"/></clipPath><g class="st53"><path d="M402.1,181.4c-0.1-0.3-0.1-0.7-0.2-1c0-0.1,0-0.1,0-0.2l0,0c-0.1-0.9,0-1.7,0.2-2.6l0,0 c0,0,0-0.1,0-0.2c0,0,0-0.1,0-0.1c0,0,0-0.1,0-0.1c0,0,0-0.1,0-0.2c0-0.1,0,0,0,0c0.3-0.9,0.7-1.7,1.2-2.5l0,0l0.2-0.2 l0.1-0.1l0.1-0.1c0.2-0.3,0.4-0.5,0.7-0.7c-1.7-3.3-1.6-7.3,0.2-10.6c-1.1,0.4-2.2,0.8-3.2,1.4l0,0l-0.1,0.1h-0.1l0,0 c0,0,0,0-0.1,0H401l-0.2,0.1l-0.2,0.1c-0.1,0-0.1,0.1-0.2,0.1l-0.1,0.1l-0.2,0.1l-0.1,0.1l-0.2,0.1l-0.2,0.2l-0.2,0.1 l-0.1,0.1l-0.3,0.2l-0.1,0.1l-0.2,0.1c-0.1,0-0.1,0.1-0.1,0.1l-0.1,0.1c0,0-0.1,0.1-0.1,0.1l-0.1,0.2l-0.1,0.1l-0.1,0.1 c0,0-0.1,0.1-0.1,0.1l-0.1,0.1c-0.1,0-0.1,0.1-0.2,0.1c0,0-0.1,0.1-0.1,0.1l-0.1,0.2l-0.1,0.2l-0.2,0.3c0,0-0.1,0.1-0.1,0.1 c0,0-0.1,0.1-0.1,0.2c0,0-0.1,0.1-0.1,0.1c0,0.1-0.1,0.1-0.1,0.2c0,0-0.1,0.1-0.1,0.1l-0.1,0.2c0,0-0.1,0.1-0.1,0.1 c0,0,0,0.1-0.1,0.1l-0.1,0.2l-0.1,0.1c0,0.1-0.1,0.1-0.1,0.2l-0.1,0.1l0,0l-0.1,0.2l-0.1,0.2c-0.1,0.1-0.1,0.2-0.2,0.4 l-0.2,0.4l-0.1,0.1l-0.1,0.2c0,0,0,0.1-0.1,0.1c0,0.1-0.1,0.2-0.1,0.2c0,0.1,0,0.1-0.1,0.1l-0.1,0.3v0.2 c0,0.1-0.1,0.2-0.1,0.2c0,0,0,0.1-0.1,0.1l-0.1,0.3c0,0,0,0.1,0,0.1l-0.1,0.4l0,0c-0.1,0.1-0.1,0.2-0.1,0.4 c0,0.1,0,0.1,0,0.1c0,0,0,0.2-0.1,0.3c-0.1,0.1,0,0.1-0.1,0.1l-0.1,0.2l0,0v0.1c0,0,0,0.1,0,0.1l-0.2,0.2l0,0 c0,0,0,0.1,0,0.1l-0.1,0.6l0,0C395.1,179.1,398.5,181.1,402.1,181.4" class="st21"/></g></g><g><defs><rect id="SVGID_177_" width="40" height="40" x="390.3" y="159.5"/></defs><clipPath id="SVGID_34_"><use xlink:href="#SVGID_177_" style="overflow:visible"/></clipPath><g class="st54"><path d="M407.9,187.4c-0.3-0.1-0.6-0.2-0.9-0.3l-0.2-0.1l0,0c-0.8-0.4-1.5-0.9-2.2-1.5l0,0l-0.1-0.1l-0.1-0.1 l-0.1-0.1l-0.1-0.1l0,0c-0.6-0.7-1.1-1.5-1.5-2.3l0,0l-0.1-0.2l-0.1-0.1c0,0,0-0.1,0-0.1c-0.1-0.3-0.2-0.6-0.3-1 c-3.7-0.2-7.2-2.2-9.1-5.4c-0.2,1.1-0.4,2.3-0.4,3.5v0.4l0,0v0.2c0,0.1,0,0.1,0,0.2s0,0.1,0,0.2c0,0.1,0,0.1,0,0.2 c0,0.1,0,0.1,0,0.2c0,0.1,0,0.1,0,0.2c0,0.1,0,0.1,0,0.2c0,0.1,0,0.1,0,0.2c0,0.1,0,0.1,0,0.2v0.2c0,0.1,0,0.1,0,0.2 l0.1,0.4v0.2c0,0.1,0,0.1,0,0.2c0,0.1,0,0.1,0,0.2c0,0.1,0,0.1,0,0.2s0,0.1,0,0.2s0,0.1,0.1,0.2c0,0.1,0,0.1,0,0.2 s0,0.1,0,0.2c0,0.1,0,0.1,0,0.2c0,0.1,0,0.1,0,0.2c0,0.1,0,0.1,0,0.2c0,0.1,0,0.1,0,0.2l0.1,0.2c0,0.1,0,0.1,0.1,0.2 c0,0.1,0.1,0.2,0.1,0.3l0.1,0.2c0,0.1,0,0.1,0.1,0.2c0,0.1,0,0.1,0.1,0.2c0,0.1,0,0.1,0.1,0.2l0.1,0.2c0,0.1,0,0.1,0.1,0.2 l0.1,0.2v0.1l0.1,0.2l0.1,0.2c0,0.1,0.1,0.2,0.1,0.2l0.1,0.1c0,0,0,0,0,0l0.1,0.2c0,0,0,0.1,0.1,0.1l0.2,0.4 c0.1,0.1,0.1,0.2,0.2,0.4c0,0,0,0.1,0.1,0.1l0.1,0.2l0.1,0.1l0.1,0.2l0.1,0.1c0,0.1,0.1,0.1,0.1,0.2l0.1,0.1l0.7,0.2 l0.1,0.1l0.2,0.2l0.1,0.1c0.1,0.1,0.2,0.2,0.3,0.3l0,0l0.2,0.3l0.1,0.1l0.2,0.2l0.1,0.1l0.1,0.1l0,0l0.1,0.1l0.1,0.1 l0.2,0.2l0,0l0.1,0.1c0.1,0.1,0.3,0.3,0.5,0.4l0,0C402.3,192.4,405.8,190.5,407.9,187.4" class="st23"/></g></g><g><defs><rect id="SVGID_179_" width="40" height="40" x="390.3" y="159.5"/></defs><clipPath id="SVGID_35_"><use xlink:href="#SVGID_179_" style="overflow:visible"/></clipPath><g style="clip-path:url(#SVGID_35_)"><path d="M415.9,185.5c-0.2,0.2-0.5,0.4-0.8,0.6l-0.1,0.1l0,0c-0.7,0.5-1.5,0.9-2.3,1.1l0,0h-0.2h-0.1l-0.2,0.1 h-0.2l0,0c-0.9,0.2-1.8,0.3-2.8,0.2h-0.1H409h-0.1h-0.1c-0.3-0.1-0.6-0.1-1-0.2c-2,3.1-5.5,5-9.2,5.1 c0.9,0.8,1.8,1.5,2.8,2.1l0,0l0.3,0.2h0.1l0,0h0.1h0.1l0.2,0.1c0.1,0,0.1,0.1,0.2,0.1l0.2,0.1l0.2,0.1l0.2,0.1l0.2,0.1 l0.3,0.2l0.2,0.1l0.2,0.1l0.2,0.1l0.3,0.1l0.2,0.1l0.2,0.1l0.2,0.1l0.2,0.1l0.2,0.1l0.2,0.1h0.2h0.2l0.2,0.1h0.2h0.2h0.2 l0.2,0.1h0.2l0.4,0.1h0.2h0.2h0.2h0.2h0.2h0.2h0.2h0.3h0.2h2.6h0.2h0.2h0.2h0.2h0.1h0.3h0.1l0.4-0.1l0,0l0.4-0.1h0.1 c0.1,0,0.2,0,0.3-0.1l0.1,0.3h0.2l0,0h0.1h0.1l0.2-0.1l0,0h0.1l0.6-0.2l0,0C417.5,192.9,417.6,188.9,415.9,185.5" class="st25"/></g></g><g><defs><rect id="SVGID_181_" width="40" height="40" x="390.3" y="159.5"/></defs><clipPath id="SVGID_36_"><use xlink:href="#SVGID_181_" style="overflow:visible"/></clipPath><g style="clip-path:url(#SVGID_36_)"><path d="M418.3,177.5c0.1,0.3,0.1,0.7,0.2,1c0,0.1,0,0.1,0,0.2l0,0c0.1,0.9,0,1.7-0.2,2.6l0,0 c0,0.1,0,0.1,0,0.2c0,0,0,0.1,0,0.1c0,0,0,0.1,0,0.1c0,0.1,0,0.1,0,0.2l0,0c-0.3,0.9-0.7,1.7-1.2,2.5l0,0l-0.2,0.2l-0.1,0.1 l-0.1,0.1c-0.2,0.3-0.4,0.5-0.7,0.7c1.7,3.3,1.6,7.3-0.2,10.6c1.1-0.4,2.2-0.8,3.2-1.4l0,0l0.3-0.2h0.1l0,0c0,0,0.1,0,0.1,0 l0.1-0.1l0.2-0.1l0.2-0.1l0.2-0.1l0.1-0.1l0.2-0.1l0.1-0.1l0.2-0.1l0.1-0.1l0.2-0.1l0.1-0.1l0.3-0.2l0.1-0.1l0.2-0.1 c0,0,0.1-0.1,0.1-0.1l0.1-0.1l0.1-0.1c0,0,0.1-0.1,0.1-0.1l0.1-0.1l0.1-0.1l0.1-0.2l0.1-0.1l0.1-0.1l0.1-0.1l0.1-0.1 l0.2-0.2l0.2-0.3c0,0,0.1-0.1,0.1-0.1l0.1-0.2c0,0,0.1-0.1,0.1-0.1c0-0.1,0.1-0.1,0.1-0.2c0,0,0.1-0.1,0.1-0.1l0.1-0.2 l0.1-0.1c0,0,0-0.1,0.1-0.1l0.1-0.1l0.1-0.2c0-0.1,0.1-0.1,0.1-0.2l0.1-0.1v-0.1l0.1-0.2v-0.2c0.1-0.1,0.1-0.2,0.2-0.4 l0.2-0.4c0,0,0-0.1,0.1-0.1l0.1-0.2c0-0.1,0-0.1,0.1-0.1c0-0.1,0.1-0.2,0.1-0.2c0-0.1,0-0.1,0.1-0.2c0-0.1,0.1-0.1,0.1-0.2 l0.1-0.1l0.1-0.2c0,0,0-0.1,0.1-0.1l0.1-0.3v-0.1c0-0.1,0.1-0.3,0.1-0.4l0,0c0-0.1,0.1-0.2,0.1-0.4c0-0.1,0-0.1,0-0.1 s0-0.2,0.1-0.3c0-0.1,0-0.1,0-0.2l0.1-0.2c0,0,0,0,0-0.1v-0.1c0,0,0-0.1,0-0.1l0.1-0.2l0,0c0,0,0-0.1,0-0.1l0.1-0.6l0,0 C425.3,179.9,421.9,177.8,418.3,177.5" class="st27"/></g></g><g><defs><rect id="SVGID_183_" width="40" height="40" x="390.3" y="159.5"/></defs><clipPath id="SVGID_37_"><use xlink:href="#SVGID_183_" style="overflow:visible"/></clipPath><g style="clip-path:url(#SVGID_37_)"><path d="M412.6,171.5c0.3,0.1,0.6,0.2,0.9,0.3l0.2,0.1l0,0c0.8,0.4,1.5,0.9,2.1,1.4l0,0l0.1,0.1 c0,0,0,0,0.1,0.1l0.1,0.1l0.1,0.1l0,0c0.6,0.7,1.1,1.5,1.5,2.3c0,0,0,0,0,0.1l0.1,0.2v0.1c0,0,0,0.1,0,0.1 c0.1,0.3,0.2,0.6,0.3,1c3.7,0.2,7.2,2.2,9.1,5.5c0.2-1.1,0.4-2.3,0.4-3.5v-0.4l0,0v-0.2c0-0.1,0-0.2,0-0.2 c0-0.1,0-0.1,0-0.2s0-0.1,0-0.2c0-0.1,0-0.1,0-0.2c0-0.1,0-0.1,0-0.2c0-0.1,0-0.1,0-0.2c0-0.1,0-0.1,0-0.2 c0-0.1,0-0.1,0-0.2v-0.2c0-0.1,0-0.1,0-0.2l-0.1-0.4v-0.2c0-0.1,0-0.2,0-0.2c0-0.1,0-0.1,0-0.2s0-0.1,0-0.2 c0-0.1,0-0.1,0-0.2c0-0.1,0-0.1-0.1-0.2v-0.2c0-0.1,0-0.1,0-0.2c0-0.1,0-0.1,0-0.2c0-0.1,0-0.1,0-0.2c0-0.1,0-0.1-0.1-0.2 c0-0.1,0-0.1,0-0.2l-0.1-0.2c0-0.1,0-0.1-0.1-0.2l-0.1-0.3l-0.1-0.2c0-0.1,0-0.1-0.1-0.2c0-0.1,0-0.1-0.1-0.2 c0-0.1,0-0.1-0.1-0.2l-0.1-0.2c0-0.1,0-0.1-0.1-0.2l-0.4-0.1v-0.1l-0.1-0.2l-0.1-0.2c0-0.1-0.1-0.2-0.1-0.2l-0.1-0.1v-0.1 l-0.1-0.2c0,0,0-0.1-0.1-0.1l-0.2-0.4c-0.1-0.1-0.1-0.2-0.2-0.4c0,0,0-0.1-0.1-0.1L425,170l-0.1-0.1l-0.1-0.2l-0.1-0.1 l-0.1-0.2l-0.1-0.1l-0.2-0.2l-0.1-0.1l-0.2-0.2l-0.1-0.1c-0.1-0.1-0.2-0.2-0.3-0.3l0,0l-0.2-0.3l-0.1-0.2l-0.2-0.2l-0.1-0.1 c0-0.1-0.1-0.1-0.1-0.1l0,0l-0.1-0.1l-0.1-0.1l-0.2-0.2l0,0l-0.1-0.1c-0.1-0.1-0.3-0.3-0.5-0.4l0,0 C418.2,166.5,414.7,168.4,412.6,171.5" class="st29"/></g></g><g><defs><rect id="SVGID_185_" width="40" height="40" x="390.3" y="159.5"/></defs><clipPath id="SVGID_39_"><use xlink:href="#SVGID_185_" style="overflow:visible"/></clipPath><g class="st58"><path d="M404.5,173.5c0.2-0.2,0.5-0.4,0.8-0.6l0.1-0.1l0,0c0.7-0.5,1.5-0.9,2.3-1.1l0,0h0.2h0.1h0.1h0.2l0,0 c0.9-0.2,1.8-0.3,2.8-0.2h0h0.2h0.1h0.1c0.3,0.1,0.6,0.1,1,0.2c2-3.2,5.5-5.2,9.3-5.3c-0.9-0.8-1.8-1.5-2.8-2.1l0,0 l-0.3-0.1h-0.1l0,0h-0.1h-0.1l-0.2-0.1l-0.2-0.1l-0.2-0.1l-0.2-0.1l-0.2-0.1l-0.2-0.1l-0.2-0.2l-0.2-0.1l-0.2-0.1l-0.2-0.1 l-0.4-0.1l-0.2-0.1L416,163l-0.2-0.1l-0.2-0.1l-0.2-0.1l-0.2-0.1l-0.2-0.1h-0.2l-0.2-0.1h-0.2l-0.2-0.1h-0.2h-0.2l-0.2-0.1 l-0.4-0.1h-0.2h-0.2c-0.1,0-0.1,0-0.2,0h-0.2h-0.2h-0.2h-0.7h-0.3h-2H409h-0.2h-0.2h-0.2h-0.2H408h-0.3h-0.1l-0.4,0.1l0,0 l-0.4,0.1h-0.1l-0.4,0h-0.2h-0.2l0,0h-0.1h-0.1l-0.2,0.1l0,0h-0.1l-0.6,0.2l0,0C402.9,166,402.8,170.1,404.5,173.5" class="st31"/></g></g></g></g></g></g></g><g id="Artifacts_3_"><g><path d="M422.5,424.6v-2h-1h-1v-1v-1h-1h-20h-1v1v1h-1h-1v2h-2v16h30v-16H422.5z M399.5,421.6h20v1h-20V421.6z M422.5,438.6h-26 v-12h26V438.6z"/><polygon points="412.5 433.6 413.5 433.6 413.5 432.6 413.5 431.6 412.5 431.6 412.5 432.6 406.5 432.6 406.5 431.6 405.5 431.6 405.5 432.6 405.5 433.6 406.5 433.6"/></g></g><g id="COS_6_"><circle cx="409.5" cy="573.1" r="32" class="st6"/><g id="b67f92d5-a154-4c61-bfb5-d89970bdc569_5_"><g id="ab43b624-19ad-45dd-84cf-2ae36b1c0631_5_"><g><defs><filter id="Adobe_OpacityMaskFilter_1_" width="32" height="32" x="393.5" y="557.1" filterUnits="userSpaceOnUse"><feColorMatrix type="matrix" values="1 0 0 0 0 0 1 0 0 0 0 0 1 0 0 0 0 0 1 0"/></filter></defs><mask id="ad64d206-7b2b-4368-b62d-adee73950f0d_6_" width="32" height="32" x="393.5" y="557.1" maskUnits="userSpaceOnUse"><g class="st32"><g><circle id="b75d8b6e-5ce7-43c4-9cc9-0c17d90f49a9_6_" cx="400.5" cy="582.1" r="1" class="st14"/><path id="a0cbe26f-a3e8-4305-98bd-b87538ecdf9c_6_" d="M421.5,577.1h-2v2h2v6h-24v-6h10v-2h-10 c-1.1,0-2,0.9-2,2v6c0,1.1,0.9,2,2,2h24c1.1,0,2-0.9,2-2v-6C423.5,578,422.6,577.1,421.5,577.1z" class="st14"/></g><linearGradient id="SVGID_41_" x1="-531.99" x2="-520.99" y1="-4253.425" y2="-4253.425" gradientTransform="matrix(-1 0 0 1 -123.5 4831.5)" gradientUnits="userSpaceOnUse"><stop offset=".1" style="stop-color:#000"/><stop offset=".888" style="stop-color:#000;stop-opacity:0"/></linearGradient><rect style="fill:url(#SVGID_41_)" width="11" height="4" x="397.5" y="576.1"/></g></mask><g class="st188"><linearGradient id="SVGID_43_" x1="393.49" x2="425.49" y1="-285.075" y2="-253.075" gradientTransform="matrix(1 0 0 -1 0 304)" gradientUnits="userSpaceOnUse"><stop offset=".1" style="stop-color:#9b76f6"/><stop offset=".9" style="stop-color:#2467f4"/></linearGradient><rect style="fill:url(#SVGID_43_)" width="32" height="32" x="393.5" y="557.1"/></g><path id="e00f77ef-664d-4ed3-8c66-41177c512565_5_" d="M411.5,567.1h-8v-8h8V567.1z M405.5,565.1h4v-4h-4V565.1z" class="st18"/><path d="M415.5,571.1h-6v8h8v-6h6v-8h-8V571.1z M415.5,577.1h-4v-4h4V577.1z M421.5,567.1v4h-4v-4H421.5z" class="st18"/></g></g></g></g><g><rect width="8" height="2" x="275.1" y="29.7"/><rect width="12" height="2" x="275.1" y="25.7"/><rect width="12" height="2" x="275.1" y="21.7"/><path d="M271.8,47.7l5.6-10l7.4,6.5c0.5,0.4,1.1,0.6,1.7,0.5s1.1-0.5,1.4-1l7-10.4l-1.7-1.1l-7,10.4l-0.1,0.1l-7.4-6.5 c-0.5-0.4-1.1-0.6-1.7-0.5s-1.1,0.5-1.4,1l-4.6,8.1V21.7h-2v26c0,1.1,0.9,2,2,2h26v-2H271.8z"/><rect id="_x3C_Transparent_Rectangle_x3E__11_" width="32" height="32" x="267.1" y="19.7" class="st10"/></g></g><g id="Text"><text id="headerSVG.prPipeline" class="st269 st270" transform="matrix(0.9993 0 0 1 124.9622 83.6484)">PR Pipeline</text><text id="headerSVG.ciPipeline" class="st271 st270" transform="matrix(0.9993 0 0 1 256.0259 229.3715)">CI Pipeline</text><text id="headerSVG.cdPipeline" class="st271 st270" transform="matrix(0.9993 0 0 1 509.0694 229.3715)">CD Pipeline</text><text id="headerSVG.keyProtect" class="st272 st269 st270" transform="matrix(0.9993 0 0 1 380.1629 363.5327)">Key Protect</text><text id="headerSVG.artifactory" class="st269 st270" transform="matrix(0.9993 0 0 1 387.8518 482.5327)">Artifacts</text><text id="headerSVG.virtual" class="st271 st270" transform="matrix(0.9993 0 0 1 649.053 229.3718)">Virtual</text><text id="headerSVG.private" class="st271 st270" transform="matrix(0.9993 0 0 1 649.053 244.3718)">Private</text><text id="headerSVG.cloud" class="st271 st270" transform="matrix(0.9993 0 0 1 649.053 259.3718)">Cloud</text><text id="headerSVG.coderisk" class="st272 st269 st270" transform="matrix(0.9993 0 0 1 252.5557 83.6484)">Code Risk</text><text id="headerSVG.analyzer" class="st272 st269 st270" transform="matrix(0.9993 0 0 1 262.3728 97.9945)">Analyzer</text><text id="headerSVG.devops" class="st272 st269 st270" transform="matrix(0.9993 0 0 1 389.6204 83.6484)">DevOps</text><text id="headerSVG.insights" class="st272 st269 st270" transform="matrix(0.9993 0 0 1 388.4993 97.9943)">Insights</text><text id="headerSVG.cloud2" class="st269 st270" transform="matrix(0.9993 0 0 1 394.8972 621.5474)">Cloud</text><text id="headerSVG.object" class="st269 st270" transform="matrix(0.9993 0 0 1 393.001 635.7728)">Object</text><text id="headerSVG.storage" class="st269 st270" transform="matrix(0.9993 0 0 1 389.9673 649.6987)">Storage</text><text id="headerSVG.issue" class="st272 st271 st270" transform="matrix(0.9993 0 0 1 22.9188 229.3711)">Issue</text><text id="headerSVG.tracker" class="st272 st271 st270" transform="matrix(0.9993 0 0 1 17.1971 244.346)">Tracker</text><text id="headerSVG.app" class="st272 st271 st270" transform="matrix(0.9993 0 0 1 130.6712 229.3714)">Application</text><text id="headerSVG.repo" class="st272 st271 st270" transform="matrix(0.9993 0 0 1 140.8245 244.3463)">Repo</text><text id="headerSVG.inventory" class="st272 st271 st270" transform="matrix(0.9993 0 0 1 384.3755 229.3717)">Inventory</text></g></svg>